<svg width="24" height="14" viewBox="0 0 24 14" xmlns="http://www.w3.org/2000/svg"><path d="M21.964 6.844c-.712-.758-1.522-1.516-2.411-2.222-2.473-1.963-5.048-3.122-7.553-3.122s-5.079 1.159-7.553 3.122c-.889.706-1.699 1.464-2.411 2.222l-.061.065.077.084c.712.782 1.523 1.564 2.413 2.292 2.471 2.022 5.041 3.214 7.535 3.214 2.495 0 5.064-1.192 7.535-3.214.89-.728 1.7-1.511 2.413-2.292l.077-.084-.061-.065zm-9.964 7.156c-6.627 0-12-7.106-12-7.106s5.373-6.894 12-6.894 12 6.894 12 6.894-5.373 7.106-12 7.106zm0-2c2.761 0 5-2.239 5-5s-2.239-5-5-5-5 2.239-5 5 2.239 5 5 5zm0 1c-3.314 0-6-2.686-6-6s2.686-6 6-6 6 2.686 6 6-2.686 6-6 6zm0-3.7c1.27 0 2.3-1.03 2.3-2.3 0-1.27-1.03-2.3-2.3-2.3-1.27 0-2.3 1.03-2.3 2.3 0 1.27 1.03 2.3 2.3 2.3z" fill-rule="nonzero" fill="#979797"/></svg>